<svg width="60" height="60" viewBox="0 0 60 60" fill="none" xmlns="http://www.w3.org/2000/svg">
<rect width="60" height="60" rx="30" fill="#02404C"/>
<path d="M30.0078 31.4414C32.3895 31.4414 34.3203 33.3722 34.3203 35.7539C34.3203 36.9745 33.8132 38.0767 32.9981 38.8613L30.2524 41.5033L34.3203 41.5039V44.3789H25.6953L25.694 41.9001L31.0046 36.7898C31.2764 36.5277 31.4453 36.1606 31.4453 35.7539C31.4453 34.96 30.8018 34.3164 30.0078 34.3164C29.2139 34.3164 28.5703 34.96 28.5703 35.7539H25.6953C25.6953 33.3722 27.626 31.4414 30.0078 31.4414ZM38.6328 31.4414V37.1914H41.5078V31.4414H44.3828V44.3789H41.5078V40.0664H35.7578V31.4414H38.6328ZM18.5078 30.0039C18.5078 33.6359 20.1915 36.8746 22.8209 38.9821L22.8203 42.4558C18.5236 39.9702 15.6328 35.3247 15.6328 30.0039H18.5078ZM30.0078 15.6289C37.4617 15.6289 43.5905 21.3022 44.3118 28.5662L41.4189 28.5665C40.7115 22.8936 35.8723 18.5039 30.0078 18.5039C26.055 18.5039 22.568 20.4982 20.4981 23.5355L24.2578 23.5352V26.4102H15.6328V17.7852H18.5078L18.5077 21.3777C21.1303 17.8869 25.3054 15.6289 30.0078 15.6289Z" fill="white"/>
</svg>
