<svg width="503" height="814" viewBox="0 0 503 814" fill="none" xmlns="http://www.w3.org/2000/svg">
<g opacity="0.05" filter="url(#filter0_b_468_537)">
<path fill-rule="evenodd" clip-rule="evenodd" d="M250.056 527.699C269.174 527.699 286.481 534.875 299.009 546.479C311.537 558.081 319.286 574.112 319.286 591.817C319.286 596.624 318.715 601.306 317.632 605.811L488.264 512.825C489.627 511.836 490.435 510.824 490.781 509.813C491.433 507.9 490.641 505.474 488.921 502.864C486.711 499.52 483.138 496.121 478.926 493.035C471.237 487.401 461.772 482.959 454.617 481.747L334.196 576.983C331.789 578.89 328.173 578.63 326.114 576.402C324.056 574.174 324.339 570.823 326.743 568.917L446.52 474.19C441.408 457.046 432.14 443.688 418.74 433.647C405.466 423.7 388.042 416.899 366.498 412.803L310.36 534.153C309.121 536.849 305.753 538.106 302.841 536.958C299.927 535.81 298.571 532.691 299.81 529.995L356.095 408.332C342.201 397.843 327.312 390.412 311.14 386.882C294.849 383.323 277.122 383.687 257.639 388.821V514.505C257.639 517.443 255.067 519.826 251.893 519.826C251.671 519.826 251.453 519.813 251.237 519.792C251.021 519.813 250.801 519.826 250.581 519.826C247.408 519.826 244.833 517.443 244.833 514.505V388.821C225.35 383.687 207.623 383.323 191.332 386.882C175.162 390.412 160.273 397.843 146.38 408.332L202.662 529.995C203.901 532.691 202.545 535.81 199.631 536.958C196.719 538.106 193.353 536.849 192.112 534.153L135.974 412.803C114.449 416.903 97.0241 423.702 83.7526 433.639C70.3456 443.673 61.0666 457.037 55.9498 474.199L171.631 566.077C174.035 567.984 174.315 571.334 172.257 573.562C170.201 575.79 166.583 576.05 164.178 574.144L48.6142 482.357C41.2901 483.392 31.318 487.899 23.3307 493.665C19.1593 496.677 15.6396 499.968 13.4873 503.193C11.8146 505.697 11.0458 508.024 11.6768 509.853C12.0141 510.827 12.8241 511.824 14.2077 512.825L182.149 604.344C181.282 600.292 180.825 596.104 180.825 591.817C180.825 574.112 188.576 558.081 201.104 546.479C213.632 534.875 230.94 527.699 250.056 527.699ZM311.443 621.486C308.169 627.288 303.963 632.569 299.009 637.157C286.481 648.759 269.174 655.937 250.056 655.937C230.94 655.937 213.632 648.759 201.104 637.157C195.634 632.091 191.077 626.183 187.676 619.658L8.34747 521.933C8.04001 521.79 7.7395 521.619 7.45498 521.419C3.99254 518.991 1.84013 516.158 0.768581 513.055C-0.98444 507.97 0.367146 502.684 3.74699 497.621C6.64498 493.275 11.1101 489.041 16.282 485.307C24.8635 479.113 35.712 474.126 44.6423 472.286C50.3534 452.466 61.0116 437.01 76.5685 425.363C91.9923 413.819 112.111 406.148 136.889 401.793C152.703 389.426 169.846 380.652 188.73 376.528C207.811 372.362 228.519 372.982 251.237 379.485C273.953 372.982 294.661 372.362 313.745 376.528C332.629 380.652 349.773 389.426 365.587 401.797C390.421 406.153 410.553 413.821 425.968 425.372C441.289 436.853 451.841 452.053 457.605 471.515C466.519 473.317 477.391 478.395 486.018 484.719C491.259 488.559 495.784 492.907 498.707 497.335C502.116 502.5 503.491 507.879 501.736 513.014C500.671 516.124 498.507 518.972 495.019 521.419C494.733 521.619 494.434 521.79 494.125 521.933L311.443 621.486ZM265.046 544.351L271.888 564.987L294.17 571.326L271.888 577.665L265.046 598.301L258.201 577.665L235.921 571.326L258.201 564.987L265.046 544.351Z" fill="black"/>
<path d="M179.094 677.456C181.568 679.209 182.04 682.489 180.154 684.785C178.265 687.079 174.73 687.52 172.259 685.767C160.518 677.428 150.456 667.355 142.407 656.032C134.36 644.709 128.353 632.167 124.723 618.88C123.968 616.077 125.806 613.236 128.825 612.535C131.847 611.834 134.908 613.538 135.663 616.343C138.99 628.521 144.472 639.985 151.803 650.298C159.132 660.612 168.33 669.809 179.094 677.456ZM297.921 747.221C300.929 746.486 304.01 748.154 304.802 750.946C305.594 753.741 303.797 756.599 300.789 757.334C292.93 759.273 284.92 760.738 276.806 761.72C268.624 762.713 260.469 763.211 252.395 763.211C200.47 763.211 153.45 743.708 119.406 712.18C85.3508 680.638 64.2871 637.079 64.2871 588.979C64.2871 587.79 64.2894 588.674 64.2963 588.979H64.3032C64.3055 588.84 64.3078 588.536 64.3124 587.958C64.3147 587.577 64.317 587.228 64.3216 586.919C64.3583 584.035 66.9052 581.726 70.012 581.76C73.1165 581.794 75.606 584.159 75.5693 587.04C75.5647 587.398 75.5601 587.716 75.5601 587.999C75.5463 590.214 75.5785 586.314 75.5785 588.979C75.5785 634.208 95.362 675.145 127.345 704.767C159.34 734.4 203.551 752.729 252.395 752.729C260.176 752.729 267.844 752.271 275.35 751.362C282.921 750.444 290.461 749.061 297.921 747.221ZM64.2963 588.979C64.2986 589.083 64.3009 589.119 64.3032 588.979H64.2963ZM429.17 584.536C429.097 581.654 431.554 579.262 434.661 579.194C437.768 579.125 440.344 581.409 440.418 584.291C440.438 585.006 440.455 585.784 440.466 586.621C440.491 588.41 440.505 588.768 440.505 588.979C440.505 623.142 429.716 655.734 410.527 683.322C391.336 710.914 363.746 733.493 330.15 747.621C327.311 748.808 323.973 747.634 322.695 744.999C321.417 742.366 322.679 739.267 325.517 738.081C357.094 724.802 383.018 703.591 401.044 677.671C419.077 651.749 429.214 621.108 429.214 588.979C429.214 587.236 429.223 587.002 429.218 586.742C429.209 586.067 429.193 585.332 429.17 584.536ZM369.271 615.839C370.012 613.035 373.064 611.321 376.086 612.011C379.106 612.701 380.953 615.532 380.21 618.337C372.924 645.54 356.096 668.695 333.523 685.047C310.94 701.408 282.632 710.966 252.395 710.966C241.771 710.966 231.191 709.762 220.88 707.408C210.63 705.067 200.665 701.574 191.207 696.976C188.453 695.64 187.386 692.488 188.825 689.931C190.261 687.378 193.657 686.387 196.411 687.721C205.024 691.908 214.148 695.103 223.571 697.255C232.933 699.391 242.609 700.484 252.395 700.484C280.088 700.484 305.977 691.757 326.598 676.817C347.23 661.871 362.61 640.707 369.271 615.839Z" fill="black"/>
<path d="M255.64 350.539C255.64 353.493 253.08 355.887 249.923 355.887C246.765 355.887 244.205 353.493 244.205 350.539V280.103L211.035 249.952L151.572 253.908C148.413 254.115 145.668 251.908 145.446 248.981C145.223 246.055 147.605 243.513 150.764 243.307L200.111 240.024L88.1605 138.273C85.9049 136.217 85.8751 132.858 88.0939 130.769C90.3127 128.679 93.938 128.652 96.1958 130.707L167.613 195.618L147.483 118.291C146.74 115.445 148.628 112.578 151.703 111.89C154.777 111.2 157.873 112.951 158.616 115.797L183.046 209.644L216.989 240.497C217.143 240.623 217.29 240.757 217.43 240.896L244.205 265.233V155.91L157.194 71.2111C155.014 69.0875 155.103 65.7284 157.396 63.707C159.69 61.6878 163.318 61.7708 165.498 63.8945L203.344 100.733L197.692 61.1915C197.284 58.2861 199.496 55.6257 202.63 55.2465C205.767 54.8674 208.639 56.9144 209.05 59.8197L216.762 113.795L244.205 140.509V43.001C244.205 40.0467 246.765 37.6525 249.923 37.6525C253.08 37.6525 255.64 40.0467 255.64 43.001V141.006L285.435 112.693L293.287 59.7984C293.707 56.8952 296.591 54.8567 299.727 55.2465C302.864 55.6363 305.065 58.3074 304.642 61.2128L298.899 99.8984L338.815 61.9711C341.022 59.8709 344.65 59.824 346.917 61.8667C349.186 63.9115 349.237 67.2705 347.029 69.3708L255.64 156.21V265.408L319.614 208.421L343.721 115.818C344.45 112.97 347.536 111.213 350.609 111.89C353.683 112.568 355.583 115.424 354.851 118.272L334.937 194.77L410.078 127.838C412.359 125.806 415.987 125.87 418.18 127.983C420.374 130.096 420.303 133.455 418.022 135.487L300.776 239.929L351.57 243.307C354.73 243.513 357.111 246.055 356.889 248.981C356.666 251.908 353.922 254.115 350.762 253.908L289.645 249.842L255.64 280.135V350.539ZM350.893 328.691C350.767 328.681 350.643 328.666 350.522 328.646L323.763 350.901C321.411 352.846 317.79 352.682 315.672 350.528C313.554 348.377 313.745 345.056 316.094 343.109L390.311 281.387L401.926 208.681C402.376 205.808 405.28 203.805 408.412 204.212C411.544 204.617 413.722 207.277 413.272 210.151L403.665 270.282L435.94 243.441C438.292 241.494 441.913 241.66 444.031 243.812C446.148 245.963 445.958 249.286 443.608 251.233L361.911 319.174L437.56 326.282C440.703 326.574 442.989 329.147 442.665 332.031C442.342 334.915 439.531 337.017 436.387 336.726L350.893 328.691ZM150.455 329.211L70.9813 337.904C67.8309 338.249 64.9787 336.163 64.607 333.247C64.233 330.331 66.484 327.688 69.6344 327.343L139.168 319.739L67.4593 259.559C65.1166 257.595 64.9374 254.244 67.0553 252.076C69.1754 249.906 72.7939 249.739 75.1343 251.701L98.8047 271.566L89.0576 211.177C88.601 208.272 90.7716 205.573 93.906 205.147C97.0426 204.724 99.9567 206.734 100.416 209.638L112.175 282.499C112.191 282.606 112.205 282.712 112.214 282.819L185.563 344.377C187.906 346.338 188.087 349.689 185.967 351.859C183.847 354.028 180.231 354.196 177.888 352.232L150.455 329.211Z" fill="black"/>
<path d="M252.392 813.901C317.502 813.901 376.689 789.233 419.595 749.497C462.498 709.759 489.13 654.941 489.13 594.642V552.934L480.244 555.956V594.642C480.244 652.668 454.609 705.427 413.31 743.676C372.011 781.927 315.047 805.668 252.395 805.668C189.738 805.668 132.776 781.927 91.4768 743.676C50.1776 705.427 24.5409 652.668 24.5409 594.642V559.437L15.6543 556.434V594.642C15.6543 654.941 42.2868 709.759 85.1922 749.497C128.095 789.233 187.285 813.901 252.392 813.901ZM252.392 0.596069C317.502 0.596069 376.691 25.2618 419.595 64.9996C462.5 104.735 489.133 159.556 489.133 219.855V464.007L480.244 460.985V219.855C480.244 161.829 454.609 109.07 413.31 70.821C372.011 32.5699 315.047 8.82653 252.395 8.82653C189.74 8.82653 132.776 32.5699 91.4768 70.821C50.1776 109.07 24.5431 161.829 24.5431 219.855V457.504L15.6565 460.505V219.855C15.6565 159.556 42.2868 104.735 85.1922 64.9996C128.095 25.2618 187.285 0.596069 252.392 0.596069Z" fill="black"/>
</g>
<defs>
<filter id="filter0_b_468_537" x="-29.8175" y="-29.2215" width="562.135" height="872.94" filterUnits="userSpaceOnUse" color-interpolation-filters="sRGB">
<feFlood flood-opacity="0" result="BackgroundImageFix"/>
<feGaussianBlur in="BackgroundImageFix" stdDeviation="14.9088"/>
<feComposite in2="SourceAlpha" operator="in" result="effect1_backgroundBlur_468_537"/>
<feBlend mode="normal" in="SourceGraphic" in2="effect1_backgroundBlur_468_537" result="shape"/>
</filter>
</defs>
</svg>
