<svg width="60" height="60" viewBox="0 0 60 60" fill="none" xmlns="http://www.w3.org/2000/svg">
<rect width="60" height="60" rx="30" fill="#02404C"/>
<path d="M30 27.125C33.1756 27.125 35.75 24.5506 35.75 21.375C35.75 18.1994 33.1756 15.625 30 15.625C26.8244 15.625 24.25 18.1994 24.25 21.375C24.25 24.5506 26.8244 27.125 30 27.125ZM20.6563 31.4375C22.641 31.4375 24.25 29.8285 24.25 27.8438C24.25 25.859 22.641 24.25 20.6563 24.25C18.6715 24.25 17.0625 25.859 17.0625 27.8438C17.0625 29.8285 18.6715 31.4375 20.6563 31.4375ZM42.9375 27.8438C42.9375 29.8285 41.3285 31.4375 39.3438 31.4375C37.359 31.4375 35.75 29.8285 35.75 27.8438C35.75 25.859 37.359 24.25 39.3438 24.25C41.3285 24.25 42.9375 25.859 42.9375 27.8438ZM30 28.5625C33.9695 28.5625 37.1875 31.7805 37.1875 35.75V44.375H22.8125V35.75C22.8125 31.7805 26.0305 28.5625 30 28.5625ZM19.9375 35.7499C19.9375 34.7538 20.0822 33.7916 20.3518 32.8831L20.108 32.9043C17.5872 33.1775 15.625 35.3127 15.625 37.9061V44.3749H19.9375V35.7499ZM44.375 44.3749V37.9061C44.375 35.2293 42.2847 33.0407 39.6482 32.8831C39.9177 33.7916 40.0625 34.7538 40.0625 35.7499V44.3749H44.375Z" fill="white"/>
</svg>
