<svg width="60" height="60" viewBox="0 0 60 60" fill="none" xmlns="http://www.w3.org/2000/svg">
<rect width="60" height="60" rx="30" fill="#02404C"/>
<path d="M29.2812 15.625C36.8234 15.625 42.9375 21.7391 42.9375 29.2812C42.9375 31.4793 42.4181 33.5562 41.4955 35.3958L45.0365 38.9377C45.5979 39.499 45.5979 40.4092 45.0365 40.9706L40.9706 45.0365C40.4092 45.5979 39.499 45.5979 38.9377 45.0365L35.3958 41.4955C33.5562 42.4181 31.4793 42.9375 29.2812 42.9375C21.7391 42.9375 15.625 36.8234 15.625 29.2812C15.625 21.7391 21.7391 15.625 29.2812 15.625ZM36.9047 34.8698L34.8718 36.9027L39.9541 41.9852L41.987 39.9522L36.9047 34.8698ZM39.5837 26.0944L26.0944 39.5837C27.1016 39.8949 28.1718 40.0625 29.2812 40.0625C30.6715 40.0625 32.0001 39.7994 33.2204 39.3202L31.8225 37.9212C31.261 37.3599 31.261 36.4496 31.8225 35.8883L35.8883 31.8225C36.4496 31.261 37.3599 31.261 37.9212 31.8225L39.3202 33.2204C39.7994 32.0001 40.0625 30.6715 40.0625 29.2812C40.0625 28.1718 39.8949 27.1016 39.5837 26.0944Z" fill="white"/>
</svg>
