<svg width="288" height="64" viewBox="0 0 288 64" fill="none" xmlns="http://www.w3.org/2000/svg">
<path fill-rule="evenodd" clip-rule="evenodd" d="M18.2626 41.4783C19.6589 41.4783 20.9229 42.043 21.8379 42.9561C22.7529 43.8691 23.3188 45.1306 23.3188 46.5238C23.3188 46.9021 23.2771 47.2705 23.198 47.625L35.6601 40.3078C35.7596 40.23 35.8186 40.1504 35.8439 40.0708C35.8915 39.9203 35.8337 39.7294 35.708 39.524C35.5466 39.2609 35.2857 38.9934 34.978 38.7505C34.4164 38.3072 33.7252 37.9577 33.2027 37.8623L24.4078 45.3565C24.232 45.5065 23.9679 45.4861 23.8175 45.3108C23.6672 45.1354 23.6878 44.8718 23.8635 44.7218L32.6113 37.2676C32.2379 35.9185 31.5611 34.8674 30.5824 34.0772C29.613 33.2945 28.3403 32.7593 26.7669 32.437L22.667 41.9861C22.5765 42.1983 22.3305 42.2972 22.1178 42.2069C21.905 42.1165 21.8059 41.8711 21.8964 41.6589L26.0071 32.0851C24.9924 31.2598 23.905 30.675 22.7239 30.3972C21.5341 30.1172 20.2394 30.1458 18.8165 30.5498V40.44C18.8165 40.6712 18.6286 40.8588 18.3969 40.8588C18.3806 40.8588 18.3647 40.8577 18.3489 40.8561C18.3332 40.8577 18.3171 40.8588 18.301 40.8588C18.0692 40.8588 17.8812 40.6712 17.8812 40.44V30.5498C16.4583 30.1458 15.1636 30.1172 13.9738 30.3972C12.7928 30.675 11.7054 31.2598 10.6907 32.0851L14.8013 41.6589C14.8918 41.8711 14.7927 42.1165 14.5799 42.2069C14.3673 42.2972 14.1214 42.1983 14.0307 41.9861L9.93075 32.437C8.35868 32.7596 7.08609 33.2946 6.11681 34.0765C5.13764 34.8662 4.45996 35.9178 4.08625 37.2683L12.5349 44.4983C12.7106 44.6484 12.731 44.912 12.5807 45.0873C12.4305 45.2627 12.1663 45.2831 11.9906 45.1331L3.55051 37.9102C3.01559 37.9917 2.28729 38.3464 1.70394 38.8001C1.39928 39.0371 1.14223 39.2961 0.985036 39.5498C0.862871 39.747 0.806721 39.93 0.852806 40.074C0.87744 40.1506 0.9366 40.229 1.03765 40.3078L13.3031 47.5095C13.2398 47.1907 13.2064 46.8612 13.2064 46.5238C13.2064 45.1306 13.7725 43.8691 14.6875 42.9561C15.6025 42.043 16.8665 41.4783 18.2626 41.4783ZM22.7461 48.8585C22.5069 49.3151 22.1997 49.7306 21.8379 50.0916C20.9229 51.0046 19.6589 51.5695 18.2626 51.5695C16.8665 51.5695 15.6025 51.0046 14.6875 50.0916C14.288 49.6931 13.9552 49.2281 13.7068 48.7147L0.609652 41.0245C0.587196 41.0133 0.565249 40.9999 0.54447 40.9841C0.291592 40.793 0.134392 40.5701 0.0561328 40.3259C-0.0718979 39.9258 0.0268142 39.5098 0.273659 39.1114C0.485311 38.7694 0.811419 38.4362 1.18914 38.1424C1.81589 37.655 2.6082 37.2626 3.26042 37.1178C3.67752 35.5581 4.45594 34.3419 5.59213 33.4254C6.7186 32.5169 8.18793 31.9133 9.99761 31.5705C11.1526 30.5974 12.4046 29.907 13.7837 29.5825C15.1773 29.2546 16.6897 29.3034 18.3489 29.8151C20.008 29.3034 21.5204 29.2546 22.9141 29.5825C24.2933 29.907 25.5455 30.5974 26.7004 31.5709C28.5141 31.9137 29.9845 32.5171 31.1103 33.426C32.2292 34.3295 32.9999 35.5256 33.4209 37.0571C34.0719 37.1989 34.8659 37.5985 35.496 38.0961C35.8787 38.3983 36.2092 38.7404 36.4227 39.0889C36.6717 39.4954 36.7721 39.9186 36.6439 40.3227C36.5662 40.5674 36.4081 40.7915 36.1534 40.9841C36.1325 40.9999 36.1107 41.0133 36.0881 41.0245L22.7461 48.8585ZM19.3574 42.7887L19.8571 44.4125L21.4845 44.9113L19.8571 45.4102L19.3574 47.034L18.8575 45.4102L17.2303 44.9113L18.8575 44.4125L19.3574 42.7887Z" fill="#C69F76"/>
<path d="M13.0802 53.263C13.2608 53.401 13.2953 53.6591 13.1576 53.8398C13.0196 54.0203 12.7614 54.055 12.5809 53.9171C11.7234 53.2609 10.9886 52.4682 10.4007 51.5772C9.81302 50.6861 9.37431 49.6992 9.1092 48.6536C9.05406 48.4331 9.18829 48.2095 9.40883 48.1543C9.62953 48.0992 9.85308 48.2333 9.90821 48.454C10.1512 49.4123 10.5515 50.3144 11.087 51.126C11.6222 51.9375 12.294 52.6613 13.0802 53.263ZM21.7586 58.7529C21.9783 58.6951 22.2033 58.8263 22.2611 59.0461C22.319 59.266 22.1877 59.4909 21.968 59.5488C21.3941 59.7013 20.8091 59.8166 20.2165 59.8939C19.6189 59.972 19.0234 60.0112 18.4336 60.0112C14.6413 60.0112 11.2073 58.4765 8.7209 55.9955C6.23369 53.5135 4.69531 50.0857 4.69531 46.3006C4.69531 46.2071 4.69548 46.2767 4.69598 46.3006H4.69649C4.69666 46.2898 4.69683 46.2658 4.69716 46.2204C4.69733 46.1904 4.6975 46.1629 4.69783 46.1386C4.70051 45.9116 4.88652 45.7299 5.11343 45.7326C5.34016 45.7353 5.52198 45.9213 5.5193 46.1481C5.51896 46.1763 5.51863 46.2013 5.51863 46.2236C5.51762 46.3979 5.51997 46.091 5.51997 46.3006C5.51997 49.8598 6.96485 53.0812 9.30073 55.4122C11.6375 57.744 14.8664 59.1864 18.4336 59.1864C19.0019 59.1864 19.562 59.1503 20.1101 59.0788C20.6631 59.0065 21.2138 58.8977 21.7586 58.7529ZM4.69598 46.3006C4.69615 46.3089 4.69632 46.3117 4.69649 46.3006H4.69598ZM31.3443 45.951C31.3389 45.7242 31.5184 45.536 31.7453 45.5306C31.9722 45.5253 32.1604 45.7049 32.1658 45.9317C32.1673 45.988 32.1684 46.0492 32.1693 46.1151C32.1711 46.2559 32.1721 46.2841 32.1721 46.3006C32.1721 48.989 31.3842 51.5537 29.9827 53.7246C28.5811 55.8959 26.5661 57.6726 24.1124 58.7844C23.9051 58.8778 23.6613 58.7854 23.5679 58.5781C23.4746 58.3709 23.5668 58.127 23.7741 58.0337C26.0803 56.9888 27.9736 55.3197 29.2901 53.28C30.6071 51.2401 31.3475 48.8289 31.3475 46.3006C31.3475 46.1635 31.3481 46.1451 31.3478 46.1247C31.3471 46.0715 31.346 46.0137 31.3443 45.951ZM26.9696 48.4143C27.0238 48.1937 27.2466 48.0588 27.4673 48.1131C27.6879 48.1674 27.8228 48.3901 27.7685 48.6109C27.2364 50.7515 26.0074 52.5736 24.3587 53.8604C22.7094 55.1479 20.642 55.8999 18.4336 55.8999C17.6578 55.8999 16.885 55.8052 16.1319 55.62C15.3834 55.4358 14.6556 55.1609 13.9648 54.7991C13.7637 54.694 13.6858 54.4459 13.7908 54.2448C13.8958 54.0438 14.1438 53.9658 14.3449 54.0708C14.974 54.4003 15.6403 54.6517 16.3285 54.821C17.0122 54.9891 17.7189 55.0751 18.4336 55.0751C20.4562 55.0751 22.347 54.3884 23.853 53.2128C25.3599 52.0366 26.4831 50.3712 26.9696 48.4143Z" fill="#58A8B3"/>
<path d="M18.6718 27.5375C18.6718 27.7699 18.4847 27.9583 18.2542 27.9583C18.0236 27.9583 17.8365 27.7699 17.8365 27.5375V21.9948L15.414 19.6222L11.0712 19.9334C10.8404 19.9497 10.64 19.7761 10.6238 19.5458C10.6075 19.3155 10.7814 19.1155 11.0122 19.0992L14.6162 18.8409L6.43997 10.834C6.27524 10.6722 6.27306 10.4079 6.43511 10.2435C6.59716 10.079 6.86193 10.0769 7.02683 10.2386L12.2427 15.3465L10.7726 9.26158C10.7183 9.03764 10.8562 8.81204 11.0807 8.7579C11.3053 8.70359 11.5314 8.84137 11.5857 9.0653L13.3699 16.4502L15.8489 18.8781C15.8601 18.888 15.8708 18.8986 15.8811 18.9095L17.8365 20.8246V12.2218L11.4818 5.55679C11.3226 5.38968 11.3291 5.12535 11.4965 4.96628C11.6641 4.80739 11.929 4.81392 12.0882 4.98103L14.8523 7.87993L14.4395 4.76833C14.4097 4.5397 14.5713 4.33035 14.8002 4.30051C15.0292 4.27068 15.2391 4.43176 15.2691 4.66039L15.8323 8.90774L17.8365 11.01V3.3369C17.8365 3.10442 18.0236 2.91602 18.2542 2.91602C18.4847 2.91602 18.6718 3.10442 18.6718 3.3369V11.049L20.8478 8.82109L21.4212 4.65871C21.4519 4.43025 21.6625 4.26984 21.8916 4.30051C22.1207 4.33119 22.2814 4.54138 22.2506 4.77001L21.8311 7.81423L24.7463 4.82968C24.9076 4.66441 25.1725 4.66072 25.3381 4.82146C25.5038 4.98237 25.5075 5.2467 25.3463 5.41197L18.6718 12.2455V20.8384L23.344 16.354L25.1046 9.06698C25.1579 8.84288 25.3833 8.70459 25.6077 8.7579C25.8323 8.8112 25.971 9.03597 25.9176 9.26007L24.4631 15.2798L29.951 10.0128C30.1176 9.85293 30.3825 9.85795 30.5427 10.0242C30.7029 10.1905 30.6977 10.4548 30.5312 10.6147L21.9682 18.8334L25.6779 19.0992C25.9087 19.1155 26.0826 19.3155 26.0664 19.5458C26.0501 19.7761 25.8497 19.9497 25.6189 19.9334L21.1553 19.6135L18.6718 21.9973V27.5375ZM25.6285 25.8182C25.6193 25.8174 25.6102 25.8162 25.6013 25.8147L23.647 27.5659C23.4752 27.719 23.2108 27.7061 23.0561 27.5366C22.9015 27.3673 22.9154 27.106 23.087 26.9528L28.5073 22.0958L29.3556 16.3745C29.3885 16.1484 29.6006 15.9908 29.8294 16.0228C30.0581 16.0547 30.2171 16.264 30.1843 16.4901L29.4826 21.2219L31.8398 19.1098C32.0116 18.9566 32.276 18.9697 32.4307 19.1389C32.5854 19.3082 32.5715 19.5697 32.3999 19.7229L26.4332 25.0693L31.9581 25.6286C32.1877 25.6516 32.3546 25.8541 32.331 26.081C32.3074 26.308 32.1021 26.4734 31.8725 26.4505L25.6285 25.8182ZM10.9896 25.8591L5.1853 26.5432C4.95522 26.5703 4.74691 26.4062 4.71976 26.1767C4.69245 25.9473 4.85685 25.7393 5.08693 25.7121L10.1653 25.1137L4.92808 20.3781C4.75698 20.2236 4.74389 19.9599 4.89857 19.7893C5.05341 19.6185 5.31768 19.6054 5.48862 19.7598L7.21737 21.323L6.5055 16.5709C6.47215 16.3423 6.63068 16.1299 6.85959 16.0964C7.08867 16.0631 7.3015 16.2213 7.33502 16.4497L8.19386 22.1833C8.19503 22.1917 8.19604 22.2001 8.19671 22.2085L13.5537 27.0525C13.7248 27.2069 13.738 27.4706 13.5832 27.6414C13.4284 27.812 13.1643 27.8252 12.9932 27.6707L10.9896 25.8591Z" fill="#749D5A"/>
<path d="M18.4345 64C23.1898 64 27.5125 62.0588 30.646 58.932C33.7794 55.805 35.7245 51.4912 35.7245 46.7462V43.4642L35.0755 43.702V46.7462C35.0755 51.3124 33.2033 55.464 30.187 58.4739C27.1708 61.4839 23.0104 63.3522 18.4347 63.3522C13.8586 63.3522 9.69844 61.4839 6.68218 58.4739C3.66592 55.464 1.79356 51.3124 1.79356 46.7462V43.9759L1.14453 43.7396V46.7462C1.14453 51.4912 3.08962 55.805 6.22318 58.932C9.35658 62.0588 13.6795 64 18.4345 64ZM18.4345 0C23.1898 0 27.5126 1.94098 30.646 5.068C33.7796 8.19485 35.7247 12.5088 35.7247 17.2538V36.4664L35.0755 36.2286V17.2538C35.0755 12.6876 33.2033 8.53595 30.187 5.52609C27.1708 2.51606 23.0104 0.647666 18.4347 0.647666C13.8588 0.647666 9.69844 2.51606 6.68218 5.52609C3.66592 8.53595 1.79372 12.6876 1.79372 17.2538V35.9547L1.14469 36.1909V17.2538C1.14469 12.5088 3.08962 8.19485 6.22318 5.068C9.35658 1.94098 13.6795 0 18.4345 0Z" fill="#C69F76"/>
<path d="M76.9403 37.4679L70.5652 26.3233C69.3624 26.3233 68.5204 26.2341 67.7686 25.9962L74.1737 16.6646H71.0765C70.7155 18.2398 69.4525 20.2903 68.2198 22.1625L66.5657 24.5996H65.814V23.1731C65.814 20.9739 65.814 18.5072 66.5959 16.6646H60.732C61.5439 18.5072 61.5439 20.9739 61.5439 23.1731V24.5996H60.7622L59.0779 22.1625C57.8151 20.3199 56.5822 18.2398 56.2514 16.6646H53.1539L59.5592 25.9962C58.7773 26.2341 57.9353 26.3233 56.7625 26.3233L50.3574 37.4679H55.9808C56.1612 35.863 56.973 33.8422 58.0555 31.9402L61.153 26.2341H61.5439V30.9594C61.5439 33.1586 61.5439 35.5955 60.732 37.4679H66.5959C65.814 35.5955 65.814 33.1586 65.814 30.9594V26.2341H66.1749L69.2722 31.9402C70.3247 33.8422 71.1667 35.863 71.3169 37.4679H76.9403ZM90.3043 35.6549H87.9889V25.7586C89.4323 25.7586 91.1464 25.7586 92.3491 26.5313V23.1433C91.1464 23.9459 89.4323 23.9459 87.9889 23.9459V18.4774H89.703C91.9281 18.4774 94.3938 18.4774 96.2884 19.2504L95.7172 16.6646H82.937C83.7187 18.5072 83.7187 20.9739 83.7187 23.1731V30.9594C83.7187 33.1586 83.7187 35.5955 82.937 37.4679H96.3487L96.89 34.8824C95.0256 35.6549 92.5294 35.6549 90.3043 35.6549ZM124.387 22.3708L125.891 30.9594C126.162 32.5049 126.462 34.1392 126.462 35.6847C126.462 36.279 126.402 36.9032 126.282 37.4679H132.116C131.003 35.5955 130.552 33.1586 130.161 30.9594L128.778 23.1433C128.507 21.6276 128.236 19.9933 128.236 18.4478C128.236 17.8535 128.266 17.2294 128.417 16.6646H124.959L117.952 32.059L110.885 16.6646H107.397C107.517 17.1996 107.577 17.8237 107.577 18.4182C107.577 19.9635 107.277 21.6276 107.006 23.1433L105.623 30.9594C105.232 33.1586 104.811 35.5955 103.668 37.4679H107.547C107.397 36.9032 107.367 36.279 107.367 35.6847C107.367 34.1392 107.638 32.4751 107.908 30.9594L109.442 22.3708L116.93 38.7755L124.387 22.3708ZM137.03 24.3619C137.03 28.9682 140.067 31.3755 143.134 31.3755C145.6 31.3755 148.096 29.7708 148.968 26.561H149.239C149.028 27.4823 148.968 28.79 148.968 29.83V30.9594C148.968 33.1586 148.968 35.5955 148.186 37.4679H154.05C153.268 35.5955 153.268 33.1586 153.268 30.9594V23.1731C153.268 20.9739 153.268 18.5072 154.05 16.6646H148.186C148.968 18.5072 148.968 20.1419 148.968 22.3409C148.968 26.8878 146.682 29.2655 144.577 29.2655C142.863 29.2655 141.3 27.6904 141.3 24.5106V23.1731C141.3 20.9739 141.3 18.5072 142.082 16.6646H136.248C137.03 18.5072 137.03 20.9443 137.03 23.1137V24.3619ZM176.044 16.6646C176.134 18.537 175.262 20.9739 174.481 23.1731L171.864 30.3353L167.534 22.1923C166.542 20.2904 165.82 18.2696 165.7 16.6646H160.077L167.414 30.5137C169.248 30.5137 170.451 30.7216 171.474 31.4051C170.21 34.6741 168.857 36.933 166.632 36.933C164.978 36.933 164.257 35.7143 164.046 34.5553L161.971 36.6061C163.084 37.7353 164.497 38.2404 166.361 38.2404C170.421 38.2404 171.864 35.3579 173.819 30.0084L178.661 16.6646H176.044ZM208.203 37.4679L201.828 26.3233C200.625 26.3233 199.783 26.2341 199.031 25.9962L205.436 16.6646H202.339C201.978 18.2398 200.715 20.2903 199.482 22.1625L197.828 24.5996H197.077V23.1731C197.077 20.9739 197.077 18.5072 197.858 16.6646H191.994C192.806 18.5072 192.806 20.9739 192.806 23.1731V24.5996H192.025L190.34 22.1625C189.077 20.3199 187.845 18.2398 187.514 16.6646H184.417L190.822 25.9962C190.04 26.2341 189.198 26.3233 188.025 26.3233L181.62 37.4679H187.243C187.424 35.863 188.235 33.8422 189.318 31.9402L192.415 26.2341H192.806V30.9594C192.806 33.1586 192.806 35.5955 191.994 37.4679H197.858C197.077 35.5955 197.077 33.1586 197.077 30.9594V26.2341H197.437L200.535 31.9402C201.587 33.8422 202.429 35.863 202.579 37.4679H208.203ZM231.34 23.1731C231.34 20.9739 231.34 18.5072 232.122 16.6646H226.288C227.07 18.5072 227.07 20.9739 227.07 23.1731V23.9459H219.221V23.1731C219.221 20.9739 219.221 18.5072 220.033 16.6646H214.169C214.951 18.5072 214.951 20.9739 214.951 23.1731V30.9594C214.951 33.1586 214.951 35.5955 214.169 37.4679H220.033C219.221 35.5955 219.221 33.1586 219.221 30.9594V25.7586H227.07V30.9594C227.07 33.1586 227.07 35.5955 226.288 37.4679H232.122C231.34 35.5955 231.34 33.1586 231.34 30.9594V23.1731ZM246.538 36.7545C245.335 36.7545 244.253 36.279 243.952 36.1304C243.952 35.0556 243.952 25.3723 247.861 25.3723C252.071 25.3723 252.462 36.7545 246.538 36.7545ZM243.952 23.1433C243.952 20.9542 243.952 18.532 244.764 16.6646H238.9C239.682 18.532 239.682 20.9542 239.682 23.1433V37.4679C242.238 37.9432 244.734 38.2404 246.989 38.2404C258.025 38.2404 257.153 23.1433 249.154 23.1433C245.696 23.1433 244.253 26.769 243.952 27.9628H243.681C243.922 27.0414 243.952 25.7288 243.952 24.659V23.1433ZM261.604 23.1433C261.604 20.9542 261.604 18.532 262.416 16.6646H256.552C257.334 18.532 257.334 20.9542 257.334 23.1433V30.9445C257.334 33.1437 257.334 35.6203 256.552 37.4679H262.416C261.604 35.6203 261.604 33.1437 261.604 30.9395V23.1433ZM286.365 23.1731C286.365 20.9739 286.365 18.5072 287.147 16.6646H283.298L274.276 31.1973V23.1731C274.276 20.9739 274.276 18.5072 275.058 16.6646H269.194C270.006 18.5072 270.006 20.9739 270.006 23.1731V30.9594C270.006 33.1586 270.006 35.5955 269.194 37.4679H273.043L282.095 22.9355V30.9594C282.095 33.1586 282.095 35.5955 281.313 37.4679H287.147C286.365 35.5955 286.365 33.1586 286.365 30.9594V23.1731ZM283.177 10.5427L281.433 8.78912C281.072 9.91855 280.02 10.8695 278.577 10.8695C277.133 10.8695 276.11 9.91855 275.75 8.78912L273.975 10.5427C275.118 11.6719 276.802 12.415 278.577 12.415C280.381 12.415 282.035 11.6719 283.177 10.5427Z" fill="#FFFEF9"/>
<path d="M116.283 49.5681C116.283 48.5679 116.283 47.4459 116.625 46.6082H108.779C109.121 47.4459 109.121 48.5679 109.121 49.5681V53.1094C109.121 54.1096 109.121 55.2177 108.779 56.0694H111.329C110.987 55.2177 110.987 54.1096 110.987 53.1094V47.4326H114.417V53.1094C114.417 54.1096 114.417 55.2177 114.062 56.0694H116.625C116.283 55.2177 116.283 54.1096 116.283 53.1094V49.5681ZM125.625 46.0135L121.248 56.0694H122.576C122.576 55.5693 122.747 54.9746 122.957 54.353H127.307C127.517 54.9746 127.674 55.5693 127.674 56.0694H129.987L125.625 46.0135ZM127.004 53.5283H123.259L125.138 49.0274L127.004 53.5283ZM139.316 46.6082H134.598C134.94 47.4459 134.94 48.5679 134.94 49.5681V53.1094C134.94 54.1096 134.94 55.2177 134.598 56.0694H137.161C136.806 55.2177 136.806 54.1096 136.806 53.1094V52.4605H139.276C141.182 52.4605 142.168 51.0008 142.168 49.5275C142.168 48.0678 141.195 46.6082 139.316 46.6082ZM138.554 51.6361H136.806V47.4326H138.554C139.737 47.4326 140.328 48.473 140.328 49.5411C140.328 50.5819 139.737 51.6361 138.554 51.6361ZM154.243 56.0694L151.43 51.0008C150.931 51.0008 150.55 50.9602 150.221 50.852L153.021 46.6082H151.601C151.443 47.3244 150.97 48.257 150.418 49.1086L149.696 50.217H149.367V49.5681C149.367 48.5679 149.367 47.4459 149.709 46.6082H147.146C147.488 47.4459 147.488 48.5679 147.488 49.5681V53.1094C147.488 54.1096 147.488 55.2177 147.146 56.0694H149.709C149.367 55.2177 149.367 54.1096 149.367 53.1094V50.9602H149.525L150.879 53.5556C151.338 54.3936 151.68 55.2989 151.772 56.0694H154.243ZM166.028 52.5417V51.7173H159.195V52.5417H166.028ZM175.882 55.5559C174.095 55.5559 173.188 53.4337 173.188 51.3118C173.188 49.1898 174.095 47.0673 175.882 47.0673C177.696 47.0673 178.59 49.1898 178.59 51.3118C178.59 53.4337 177.696 55.5559 175.882 55.5559ZM175.869 46.2296C172.834 46.2296 171.31 48.7707 171.31 51.2982C171.31 53.8526 172.847 56.3937 175.896 56.3937C178.931 56.3937 180.456 53.8662 180.456 51.3251C180.456 48.7843 178.918 46.2296 175.869 46.2296ZM189.022 47.4326C189.995 47.4326 190.796 47.4325 191.611 47.7841L191.374 46.6082H184.804L184.567 47.7841C185.382 47.4325 186.184 47.4326 187.156 47.4326V53.1094C187.156 54.1096 187.156 55.2177 186.814 56.0694H189.364C189.022 55.2177 189.022 54.1096 189.022 53.1094V47.4326ZM199.441 55.245H198.429V50.7441C199.06 50.7441 199.809 50.7441 200.335 51.0954V49.5545C199.809 49.9194 199.06 49.9194 198.429 49.9194V47.4326H199.179C200.151 47.4326 201.229 47.4325 202.056 47.7841L201.807 46.6082H196.222C196.563 47.4459 196.563 48.5679 196.563 49.5681V53.1094C196.563 54.1096 196.563 55.2177 196.222 56.0694H202.083L202.319 54.8934C201.504 55.245 200.414 55.245 199.441 55.245ZM210.32 46.6082C210.517 47.4595 210.334 48.5679 210.163 49.5681L209.598 52.8797C209.322 54.5151 208.428 55.2177 207.64 55.2177C207.39 55.2177 207.153 55.1504 206.943 55.0152V56.4207C208.875 56.4207 210.123 54.9613 210.491 52.8391L211.411 47.4326H214.434V53.1094C214.434 54.1096 214.434 55.2313 214.092 56.0694H216.641C216.3 55.2313 216.3 54.1096 216.3 53.1094V49.5681C216.3 48.5679 216.3 47.4595 216.641 46.6082H210.32ZM224.932 55.7451C224.406 55.7451 223.933 55.5287 223.802 55.4611C223.802 54.9725 223.802 50.5683 225.51 50.5683C227.35 50.5683 227.521 55.7451 224.932 55.7451ZM223.802 49.5545C223.802 48.5588 223.802 47.4574 224.156 46.6082H221.594C221.936 47.4574 221.936 48.5588 221.936 49.5545V56.0694C223.053 56.2858 224.143 56.4207 225.129 56.4207C229.952 56.4207 229.571 49.5545 226.075 49.5545C224.564 49.5545 223.933 51.2036 223.802 51.7464H223.683C223.788 51.3276 223.802 50.7305 223.802 50.2437V49.5545Z" fill="#C69F76"/>
</svg>
