<svg width="56" height="56" viewBox="0 0 56 56" fill="none" xmlns="http://www.w3.org/2000/svg">
<path d="M30.3999 4.66895C33.0258 4.67329 34.3565 4.68719 35.5064 4.72142L35.9593 4.73622C36.4824 4.75481 36.9985 4.77815 37.6208 4.80731C40.1037 4.92204 41.7975 5.31481 43.285 5.89231C44.8229 6.48537 46.1219 7.28648 47.4187 8.58344C48.7137 9.88037 49.515 11.1831 50.11 12.7173C50.6854 14.2029 51.0783 15.8984 51.195 18.3815C51.2228 19.0037 51.2452 19.5198 51.2636 20.0431L51.2783 20.4959C51.3124 21.6457 51.328 22.9766 51.3329 25.6026L51.3348 27.3423C51.335 27.5549 51.335 27.7742 51.335 28.0006L51.3348 28.6588L51.3334 30.3988C51.3289 33.0247 51.3152 34.3556 51.2809 35.5053L51.2659 35.9582C51.2475 36.4815 51.2242 36.9977 51.195 37.6197C51.0802 40.1029 50.6854 41.7964 50.11 43.2839C49.5169 44.822 48.7137 46.121 47.4187 47.4179C46.1219 48.7129 44.8171 49.5139 43.285 50.1089C41.7975 50.6845 40.1037 51.0772 37.6208 51.1939C36.9985 51.2217 36.4824 51.2443 35.9593 51.2625L35.5064 51.2772C34.3565 51.3115 33.0258 51.3269 30.3999 51.332L28.6599 51.3339C28.4473 51.3339 28.228 51.3339 28.0017 51.3339H27.3434L25.6035 51.3323C22.9775 51.3281 21.6466 51.3141 20.4969 51.2798L20.044 51.2651C19.5208 51.2464 19.0047 51.2231 18.3825 51.1939C15.8994 51.0793 14.2077 50.6845 12.7183 50.1089C11.1822 49.516 9.88133 48.7129 8.58439 47.4179C7.28746 46.121 6.48829 44.8162 5.89329 43.2839C5.31579 41.7964 4.92496 40.1029 4.80829 37.6197C4.78057 36.9977 4.75796 36.4815 4.73964 35.9582L4.72497 35.5053C4.69083 34.3556 4.67527 33.0247 4.67023 30.3988L4.66992 25.6026C4.67426 22.9766 4.68815 21.6457 4.72238 20.4959L4.73719 20.0431C4.75579 19.5198 4.77912 19.0037 4.80829 18.3815C4.923 15.8965 5.31579 14.2048 5.89329 12.7173C6.48633 11.1812 7.28746 9.88037 8.58439 8.58344C9.88133 7.28648 11.1841 6.48731 12.7183 5.89231C14.2058 5.31481 15.8975 4.92398 18.3825 4.80731C19.0047 4.77962 19.5208 4.75701 20.044 4.73869L20.4969 4.72401C21.6466 4.68985 22.9775 4.67429 25.6035 4.66925L30.3999 4.66895ZM28.0017 16.334C21.5549 16.334 16.335 21.5595 16.335 28.0006C16.335 34.4473 21.5605 39.6672 28.0017 39.6672C34.4484 39.6672 39.6683 34.4417 39.6683 28.0006C39.6683 21.5539 34.4426 16.334 28.0017 16.334ZM28.0017 21.0006C31.8678 21.0006 35.0017 24.1335 35.0017 28.0006C35.0017 31.8667 31.8687 35.0006 28.0017 35.0006C24.1356 35.0006 21.0016 31.8678 21.0016 28.0006C21.0016 24.1345 24.1344 21.0006 28.0017 21.0006ZM40.2517 12.834C38.6433 12.834 37.335 14.1404 37.335 15.7487C37.335 17.3569 38.6414 18.6654 40.2517 18.6654C41.8598 18.6654 43.1683 17.3589 43.1683 15.7487C43.1683 14.1404 41.8577 12.832 40.2517 12.834Z" fill="#FFFEF9"/>
</svg>
