<svg width="28" height="29" viewBox="0 0 28 29" fill="none" xmlns="http://www.w3.org/2000/svg">
<path d="M15 27.5C8.09644 27.5 2.5 21.9035 2.5 15C2.5 8.09644 8.09644 2.5 15 2.5C21.9035 2.5 27.5 8.09644 27.5 15C27.5 21.9035 21.9035 27.5 15 27.5ZM8.75 16.25C8.75 19.7017 11.5482 22.5 15 22.5C18.4517 22.5 21.25 19.7017 21.25 16.25H18.75C18.75 18.3211 17.0711 20 15 20C12.9289 20 11.25 18.3211 11.25 16.25H8.75ZM10 13.75C11.0355 13.75 11.875 12.9105 11.875 11.875C11.875 10.8395 11.0355 10 10 10C8.96446 10 8.125 10.8395 8.125 11.875C8.125 12.9105 8.96446 13.75 10 13.75ZM20 13.75C21.0355 13.75 21.875 12.9105 21.875 11.875C21.875 10.8395 21.0355 10 20 10C18.9645 10 18.125 10.8395 18.125 11.875C18.125 12.9105 18.9645 13.75 20 13.75Z" fill="#02404C"/>
</svg>
