<svg width="56" height="56" viewBox="0 0 56 56" fill="none" xmlns="http://www.w3.org/2000/svg">
<path d="M28.0033 51.3332C15.1166 51.3332 4.66992 40.8864 4.66992 27.9998C4.66992 15.1132 15.1166 4.6665 28.0033 4.6665C40.8898 4.6665 51.3366 15.1132 51.3366 27.9998C51.3366 40.8864 40.8898 51.3332 28.0033 51.3332ZM20.7469 30.7317L20.7765 30.713C22.1292 35.1788 22.8055 37.4118 22.8055 37.4118C23.0675 38.1363 23.4276 38.2656 23.8647 38.2065C24.3015 38.1473 24.5334 37.9109 24.8185 37.6358C24.8185 37.6358 25.7432 36.7433 27.5926 34.9585L33.5447 39.3627C34.6293 39.9619 35.4123 39.6527 35.6816 38.3545L39.5498 20.1048C39.9768 18.4062 39.2278 17.7249 37.9106 18.2641L15.2002 27.0364C13.6509 27.6592 13.6584 28.526 14.9182 28.9124L20.7469 30.7317Z" fill="#FFFEF9"/>
</svg>
