<svg width="56" height="56" viewBox="0 0 56 56" fill="none" xmlns="http://www.w3.org/2000/svg">
<path d="M28.0033 4.6665C40.8898 4.6665 51.3366 15.1132 51.3366 27.9998C51.3366 40.8864 40.8898 51.3332 28.0033 51.3332C23.7242 51.3332 19.7142 50.1814 16.2663 48.1708L4.67968 51.3332L7.83425 39.74C5.8225 36.2916 4.66992 32.2803 4.66992 27.9998C4.66992 15.1132 15.1166 4.6665 28.0033 4.6665ZM19.583 17.0526C19.2811 17.0738 18.9851 17.1476 18.7156 17.2854C18.5134 17.3889 18.3258 17.5384 18.0308 17.8168C17.7524 18.0798 17.591 18.3094 17.4209 18.5308C16.5583 19.654 16.0946 21.0326 16.1033 22.4488C16.1079 23.5936 16.4053 24.7061 16.8749 25.7449C17.8272 27.8514 19.3977 30.0784 21.4722 32.1436C21.9705 32.6397 22.4587 33.1411 22.9851 33.6045C25.5598 35.8716 28.6282 37.5063 31.9459 38.379C31.9459 38.379 33.2526 38.5796 33.2717 38.5808C33.7046 38.6041 34.1367 38.5729 34.57 38.5507C35.2497 38.5157 35.9133 38.3318 36.5139 38.0119C36.9001 37.8064 37.0828 37.7042 37.4069 37.4998C37.4069 37.4998 37.5063 37.4326 37.6981 37.2898C38.0131 37.055 38.2077 36.8898 38.4697 36.6178C38.6629 36.4171 38.829 36.18 38.9574 35.9129C39.1398 35.5321 39.3235 34.8052 39.3965 34.2016C39.4523 33.7405 39.4355 33.4885 39.4294 33.3324C39.4194 33.0814 39.2119 32.8231 38.9847 32.7134L37.6278 32.1035C37.6278 32.1035 35.599 31.2205 34.3581 30.6545C34.2289 30.5954 34.0875 30.5681 33.9454 30.5595C33.6341 30.5404 33.2853 30.6216 33.0634 30.8554C33.0517 30.8507 32.8972 30.9842 31.2091 33.0293C31.116 33.1406 30.8978 33.3826 30.5205 33.36C30.4636 33.356 30.4069 33.3478 30.3516 33.3334C30.1987 33.293 30.0499 33.2398 29.9043 33.1782C29.6156 33.0557 29.5144 33.0093 29.3172 32.9243C27.9702 32.3359 26.734 31.5486 25.6413 30.5852C25.3482 30.3271 25.0757 30.0492 24.7947 29.7769C23.8143 28.8265 23.0116 27.8157 22.4144 26.8187C22.3818 26.7643 22.3316 26.6857 22.2775 26.5977C22.1798 26.4388 22.072 26.2498 22.0382 26.1201C21.9515 25.7769 22.1816 25.5011 22.1816 25.5011C22.1816 25.5011 22.7495 24.8802 23.0134 24.5425C23.2673 24.2175 23.4864 23.8997 23.626 23.6731C23.9008 23.2313 23.9879 22.7746 23.8434 22.4223C23.1888 20.8264 22.5134 19.239 21.8173 17.6607C21.6799 17.3492 21.2713 17.1229 20.8997 17.08C20.7738 17.0655 20.6481 17.0509 20.5217 17.0426C20.2089 17.0273 19.8954 17.0307 19.583 17.0526Z" fill="#FFFEF9"/>
</svg>
